<svg width="170" height="110" viewBox="0 0 170 110" fill="none" xmlns="http://www.w3.org/2000/svg">
<path d="M81.792 66.792C81.152 66.792 80.624 66.664 80.208 66.408C79.792 66.12 79.44 65.656 79.152 65.016C78.864 63.992 78.72 62.968 78.72 61.944C78.72 61.464 78.768 61.128 78.864 60.936C78.992 60.808 79.04 60.536 79.008 60.12C79.008 59.672 79.008 59.352 79.008 59.16C78.976 58.424 78.752 58.056 78.336 58.056C78.048 58.056 77.728 58.168 77.376 58.392C75.584 59.512 74.08 60.472 72.864 61.272C71.648 62.072 70.48 62.968 69.36 63.96C68.912 64.472 68.576 64.92 68.352 65.304C68.128 65.688 67.968 65.96 67.872 66.12C67.776 66.248 67.648 66.312 67.488 66.312C67.296 66.376 67.168 66.408 67.104 66.408C66.944 66.408 66.752 66.328 66.528 66.168C66.304 65.976 66.16 65.848 66.096 65.784C65.968 65.656 65.76 65.448 65.472 65.16C65.184 64.84 65.024 64.616 64.992 64.488C64.992 64.232 65.088 63.64 65.28 62.712C65.504 61.784 65.68 61.192 65.808 60.936C65.904 60.936 66.048 60.744 66.24 60.36C66.432 59.944 66.608 59.624 66.768 59.4C66.864 58.92 67.28 57.816 68.016 56.088C68.464 55.32 68.768 54.68 68.928 54.168C69.12 53.656 69.248 53.016 69.312 52.248V52.152C69.312 52.024 69.36 51.928 69.456 51.864C69.552 51.768 69.648 51.72 69.744 51.72C69.968 51.56 70.176 51.48 70.368 51.48C70.784 51.48 71.2 51.736 71.616 52.248C72.096 52.856 72.336 53.496 72.336 54.168C72.336 55 71.808 56.312 70.752 58.104C70.656 58.328 70.512 58.648 70.32 59.064C70.16 59.48 70.08 59.768 70.08 59.928L72.768 58.104C73.024 57.816 73.712 57.304 74.832 56.568C75.952 55.832 76.736 55.416 77.184 55.32C77.952 54.968 78.432 54.792 78.624 54.792C79.008 54.792 79.52 55.08 80.16 55.656C80.832 56.232 81.232 56.712 81.36 57.096C81.36 57.448 81.392 57.704 81.456 57.864C81.616 58.504 81.696 59.256 81.696 60.12C81.696 60.696 81.648 61.224 81.552 61.704C81.488 62.152 81.392 62.408 81.264 62.472C81.264 62.504 81.28 62.552 81.312 62.616C81.344 62.68 81.408 62.712 81.504 62.712V62.952C81.248 62.952 81.216 63.224 81.408 63.768C81.6 64.312 81.856 64.728 82.176 65.016C82.496 65.336 82.656 65.656 82.656 65.976C82.656 66.36 82.368 66.632 81.792 66.792ZM89.6014 68.28C89.2174 68.28 88.9134 68.216 88.6894 68.088C88.4654 67.96 88.1454 67.72 87.7294 67.368C86.6734 66.248 86.1454 65.224 86.1454 64.296C86.1454 64.072 86.1614 63.912 86.1934 63.816C86.2894 63.592 86.3214 63.368 86.2894 63.144C86.2894 62.92 86.2894 62.776 86.2894 62.712C86.1614 62.584 86.0974 62.504 86.0974 62.472C86.0974 62.408 86.1294 62.36 86.1934 62.328C86.2574 62.264 86.3054 62.2 86.3374 62.136C86.5294 62.136 86.5934 61.96 86.5294 61.608C86.4654 61.352 86.5934 60.792 86.9134 59.928C87.2334 59.032 87.6334 58.216 88.1134 57.48C88.4654 56.904 88.9774 56.184 89.6494 55.32C90.3534 54.456 90.9774 53.8 91.5214 53.352C92.2894 52.68 92.9774 52.184 93.5854 51.864C94.1934 51.544 94.8654 51.304 95.6014 51.144C96.2414 50.984 96.6734 50.904 96.8974 50.904C97.1214 50.904 97.3134 50.968 97.4734 51.096C97.6654 51.192 97.9054 51.384 98.1934 51.672C99.0574 52.056 99.6494 52.552 99.9694 53.16C100.321 53.736 100.497 54.648 100.497 55.896C100.497 57.976 99.6494 60.232 97.9534 62.664C97.2174 63.72 96.5294 64.536 95.8894 65.112C95.2494 65.656 94.4014 66.248 93.3454 66.888C92.6734 67.368 92.0494 67.72 91.4734 67.944C90.9294 68.136 90.3054 68.248 89.6014 68.28ZM94.2094 63.192C94.9774 62.328 95.5854 61.512 96.0334 60.744C96.5134 59.976 96.9614 59 97.3774 57.816C97.5374 57.272 97.6174 56.616 97.6174 55.848C97.6174 54.888 97.4894 54.344 97.2334 54.216C96.9134 54.056 96.5934 53.976 96.2734 53.976C95.5694 53.976 94.8334 54.296 94.0654 54.936C93.1374 55.736 92.3054 56.728 91.5694 57.912C90.8334 59.064 90.0814 60.504 89.3134 62.232C88.9934 62.904 88.8334 63.56 88.8334 64.2C88.8334 64.68 88.9454 65.064 89.1694 65.352C89.4254 65.64 89.7614 65.784 90.1774 65.784C91.2334 65.784 92.5774 64.92 94.2094 63.192ZM109.091 68.904C108.643 68.776 108.275 68.632 107.987 68.472C107.699 68.312 107.315 68.008 106.835 67.56C106.259 66.792 105.875 66.088 105.683 65.448C105.523 64.776 105.443 63.72 105.443 62.28C105.443 61.512 105.875 59.4 106.739 55.944C106.675 56.168 106.787 55.704 107.075 54.552C107.171 54.2 107.043 53.976 106.691 53.88C106.339 53.784 105.843 53.736 105.203 53.736C104.659 53.736 104.339 53.704 104.243 53.64C104.147 53.608 104.083 53.56 104.051 53.496C104.051 53.432 104.051 53.384 104.051 53.352C104.051 53.192 103.987 53 103.859 52.776C103.827 52.744 103.811 52.696 103.811 52.632C103.811 52.472 103.891 52.296 104.051 52.104C104.243 51.912 104.467 51.8 104.723 51.768C104.883 51.736 105.251 51.688 105.827 51.624C106.403 51.56 106.947 51.432 107.459 51.24C107.971 51.048 108.371 50.776 108.659 50.424C109.075 49.368 109.603 48.184 110.243 46.872C110.883 45.528 111.315 44.728 111.539 44.472C112.051 44.216 112.403 44.088 112.595 44.088C112.787 44.088 112.947 44.152 113.075 44.28C113.203 44.408 113.379 44.632 113.603 44.952C113.635 45.016 113.715 45.128 113.843 45.288C113.971 45.448 114.035 45.608 114.035 45.768C114.035 46.024 113.907 46.408 113.651 46.92C113.427 47.432 112.963 48.328 112.259 49.608L111.635 50.808C111.731 50.84 111.955 50.856 112.307 50.856C112.659 50.856 112.947 50.84 113.171 50.808C113.875 50.68 114.531 50.616 115.139 50.616C115.459 50.616 115.683 50.632 115.811 50.664C116.547 50.664 117.075 50.808 117.395 51.096C117.747 51.352 117.955 51.8 118.019 52.44C118.083 52.792 118.019 53 117.827 53.064C117.635 53.128 117.091 53.16 116.195 53.16C112.483 53.32 110.611 53.464 110.579 53.592C110.451 53.688 110.211 54.248 109.859 55.272C109.507 56.296 109.203 57.272 108.947 58.2C108.531 60.12 108.323 61.816 108.323 63.288C108.323 64.632 108.515 65.528 108.899 65.976C109.059 66.136 109.363 66.216 109.811 66.216C110.259 66.216 110.739 66.136 111.251 65.976C111.795 65.784 112.243 65.544 112.595 65.256C113.171 64.776 113.651 64.536 114.035 64.536C114.227 64.536 114.371 64.6 114.467 64.728C114.595 64.824 114.659 64.952 114.659 65.112C114.659 65.464 114.467 65.912 114.083 66.456C113.603 67.192 112.963 67.8 112.163 68.28C111.363 68.76 110.595 69 109.859 69C109.507 69 109.251 68.968 109.091 68.904ZM123.47 69.144C122.094 69.144 120.958 68.632 120.062 67.608C119.166 66.584 118.718 65.304 118.718 63.768C118.718 62.232 119.054 60.552 119.726 58.728C120.43 56.872 121.326 55.208 122.414 53.736C123.502 52.264 124.606 51.272 125.726 50.76C126.366 50.408 127.086 50.232 127.886 50.232C128.494 50.232 129.182 50.408 129.95 50.76C130.494 50.984 130.91 51.256 131.198 51.576C131.486 51.896 131.742 52.392 131.966 53.064C132.062 53.64 132.11 54.04 132.11 54.264C132.11 54.456 132.03 54.872 131.87 55.512C131.486 56.696 130.974 57.704 130.334 58.536C129.726 59.336 128.926 60.024 127.934 60.6C127.422 60.92 126.782 61.08 126.014 61.08C125.342 61.08 124.702 60.968 124.094 60.744C123.518 60.488 123.07 60.12 122.75 59.64L122.414 59.256L122.27 59.64C121.598 61.368 121.262 62.84 121.262 64.056C121.262 64.888 121.422 65.56 121.742 66.072C121.966 66.424 122.51 66.6 123.374 66.6C124.014 66.6 124.478 66.536 124.766 66.408C125.246 66.248 125.662 66.056 126.014 65.832C126.398 65.576 126.766 65.32 127.118 65.064L127.31 64.968H127.262C127.646 64.776 127.966 64.6 128.222 64.44C128.478 64.28 128.654 64.168 128.75 64.104C128.814 64.104 128.878 64.088 128.942 64.056C129.006 64.024 129.07 63.96 129.134 63.864C129.422 63.736 129.758 63.784 130.142 64.008C130.526 64.232 130.718 64.52 130.718 64.872C130.654 65.128 130.366 65.544 129.854 66.12C129.342 66.696 128.958 67 128.702 67.032C128.67 67.032 128.558 67.08 128.366 67.176C128.174 67.272 128.046 67.352 127.982 67.416H128.03C127.742 67.8 127.454 67.992 127.166 67.992H126.782C126.654 68.248 126.222 68.504 125.486 68.76C124.782 69.016 124.11 69.144 123.47 69.144ZM125.63 58.584C126.59 58.584 127.47 58.04 128.27 56.952C129.038 55.928 129.422 54.904 129.422 53.88C129.422 53.336 129.31 52.952 129.086 52.728C128.894 52.632 128.718 52.584 128.558 52.584C128.398 52.584 128.126 52.632 127.742 52.728C127.326 52.824 126.686 53.272 125.822 54.072C124.958 54.84 124.318 55.528 123.902 56.136L123.278 57.144C123.534 57.048 123.774 57 123.998 57C124.254 56.968 124.398 56.984 124.43 57.048C124.43 57.496 124.542 57.864 124.766 58.152C124.99 58.44 125.278 58.584 125.63 58.584ZM145.055 68.856C144.831 68.952 144.639 69 144.479 69C144.351 69 144.191 68.936 143.999 68.808C143.807 68.68 143.567 68.504 143.279 68.28C143.055 67.928 142.911 67.608 142.847 67.32C142.815 67.032 142.799 66.456 142.799 65.592C142.895 64.696 143.263 63.112 143.903 60.84C144.543 58.536 145.007 57.048 145.295 56.376C145.423 55.96 145.487 55.608 145.487 55.32C145.487 55.064 145.407 54.904 145.247 54.84C145.087 54.744 144.767 54.664 144.287 54.6C143.103 54.472 141.999 54.84 140.975 55.704C139.983 56.568 138.911 57.912 137.759 59.736C136.735 61.336 136.223 62.728 136.223 63.912C136.223 64.136 136.255 64.344 136.319 64.536C136.415 64.792 136.671 64.92 137.087 64.92C137.375 64.92 137.727 64.856 138.143 64.728C138.591 64.6 138.975 64.44 139.295 64.248C139.487 64.152 140.095 63.88 141.119 63.432C141.311 63.432 141.439 63.496 141.503 63.624C141.599 63.72 141.647 63.928 141.647 64.248C141.647 64.504 141.807 64.696 142.127 64.824C142.255 64.984 142.063 65.288 141.551 65.736C141.039 66.152 140.287 66.648 139.295 67.224C138.495 67.448 137.775 67.56 137.135 67.56C136.495 67.56 135.871 67.352 135.263 66.936C134.207 66.328 133.679 65.24 133.679 63.672C133.679 62.616 133.951 61.304 134.495 59.736C135.039 58.456 135.631 57.384 136.271 56.52C136.943 55.624 137.807 54.632 138.863 53.544C139.023 53.384 139.343 53.176 139.823 52.92C140.335 52.632 140.895 52.392 141.503 52.2C142.527 51.88 143.375 51.72 144.047 51.72C144.623 51.72 145.135 51.864 145.583 52.152L146.207 52.248C146.463 52.248 146.655 52.136 146.783 51.912C146.943 51.688 147.183 51.176 147.503 50.376L148.703 47.208C148.959 46.536 149.343 45.512 149.855 44.136C150.399 42.76 150.895 41.544 151.343 40.488C151.567 40.072 151.743 39.64 151.871 39.192C152.031 38.744 152.159 38.472 152.255 38.376H153.167C153.327 38.376 153.567 38.504 153.887 38.76C154.207 38.984 154.415 39.272 154.511 39.624C154.511 39.976 154.367 40.664 154.079 41.688C153.791 42.68 153.391 43.784 152.879 45C152.623 45.64 152.415 46.12 152.255 46.44C151.135 49.096 150.367 51.08 149.951 52.392L149.087 54.6C148.703 55.4 148.479 55.992 148.415 56.376C148.191 57.304 147.935 58.12 147.647 58.824C147.359 59.496 147.199 59.88 147.167 59.976L146.735 61.272C146.191 62.84 145.823 63.944 145.631 64.584C145.471 65.192 145.391 65.816 145.391 66.456C145.391 67.096 145.423 67.624 145.487 68.04C145.487 68.392 145.343 68.664 145.055 68.856Z" fill="black"/>
<rect x="8.8208" y="60.8245" width="37.3333" height="28" transform="rotate(-57.7466 8.8208 60.8245)" fill="#63B2FF"/>
<rect x="20.7373" y="61.5879" width="37.3333" height="28" transform="rotate(-70.5978 20.7373 61.5879)" fill="#FFE380"/>
</svg>
